# xmcd
#
# Track frame offsets:
#	150
#	9020
#	20303
#	31341
#	39052
#	51808
#	60456
#	74205
#	84225
#	101596
#	109204
#	122688
#	128422
#	142261
#	150906
#	162140
#	170748
#	180426
#	189971
#	198578
#	207562
#	217684
#	228234
#	243075
#	250146
#	264547
#
# Disc length: 3771 seconds
#
# Revision: 0
# Processed by: cddbd v1.4PL0 Copyright (c) Steve Scherf et al.
# Submitted via: audiograbber 1.81.02
#
DISCID=4f0eb91a
DTITLE=Johnny Rebel - If you can... try it man
DYEAR=2001
DGENRE=Country
TTITLE0=Move them niggers north
TTITLE1=How it all started (Interview excerpt)
TTITLE2=Stay away from Dixie
TTITLE3=Corny Hall (Interview excerpt)
TTITLE4=Keep a workin' Big Jim
TTITLE5=Enuff is enuff! (Interview excerpt)
TTITLE6=(Federal aid hell!) The money belongs to us
TTITLE7=C.O.R.E. - Bobby Kennedy (Interview excerpt)
TTITLE8=Looking for a handout
TTITLE9=KKK - Live in Caplan
TTITLE10=Kajun Klu Klux Klan
TTITLE11=Black friends - race issues (Interview excerpt)
TTITLE12=Some niggers never die (they just smell that way)
TTITLE13=New CD - Black attitudes (Interview excerpt)
TTITLE14=Coon Town
TTITLE15=Wiggers! (Interview excerpt)
TTITLE16=Nigger hatin me
TTITLE17=My kind (Interview excerpt)
TTITLE18=Nigger nigger
TTITLE19=Spades - racist labels (Interview excerpt)
TTITLE20=Who likes a nigger
TTITLE21=Responsibility (Interview excerpt)
TTITLE22=Still looking for a handout
TTITLE23=Nigger! (Interview sample)
TTITLE24=The garden song (Filthy McNasty)
TTITLE25=Everybody was f - -  - -  - -  - but me (Filthy McNasty)
EXTD=
EXTT0=
EXTT1=
EXTT2=
EXTT3=
EXTT4=
EXTT5=
EXTT6=
EXTT7=
EXTT8=
EXTT9=
EXTT10=
EXTT11=
EXTT12=
EXTT13=
EXTT14=
EXTT15=
EXTT16=
EXTT17=
EXTT18=
EXTT19=
EXTT20=
EXTT21=
EXTT22=
EXTT23=
EXTT24=Filthy McNasty
EXTT25=Filthy McNasty
PLAYORDER=
